<svg t="1711006274237" class="icon" viewBox="0 0 1024 1024" version="1.1" xmlns="http://www.w3.org/2000/svg" p-id="6510" width="200" height="200"><path d="M932.394792 91.748565c-35.552569-35.552569-93.182136-35.552569-128.734705 0L512.071679 383.193616 220.339913 91.748565c-35.695926-35.695926-93.182136-35.695926-128.734705 0s-35.552569 93.182136 0 128.734705l291.731765 291.731766L91.748565 803.803444c-35.552569 35.552569-35.552569 93.182136 0 128.734705 35.552569 35.552569 93.182136 35.552569 128.734705 0L512.071679 640.806384l291.731765 291.731765c35.552569 35.552569 93.182136 35.552569 128.734705 0 35.552569-35.552569 35.552569-93.182136 0-128.734705L640.663027 512.071679l291.875122-291.731766c35.265855-35.552569 35.265855-93.182136-0.143357-128.591348z" p-id="6511" fill="#ffffff"></path></svg>