<svg width="41" height="41" viewBox="0 0 41 41" fill="none" xmlns="http://www.w3.org/2000/svg">
<path d="M23.2659 14.4019H12.3313C11.1981 14.4019 10.2812 15.3187 10.2812 16.4519V27.3865C10.2812 28.5196 11.1981 29.4365 12.3313 29.4365H23.2659C24.399 29.4365 25.3159 28.5196 25.3159 27.3865V16.4519C25.3159 15.3187 24.395 14.4019 23.2659 14.4019ZM23.2659 27.3825H12.3313V16.4519H23.2659V27.3825Z" fill="white"/>
<path d="M14.3828 22.6021H21.2175V24.6521H14.3828V22.6021ZM30.0981 7.56738C31.2313 7.56738 32.1481 8.48428 32.1481 9.61738V20.5521C32.1481 21.6852 31.2313 22.6021 30.0981 22.6021H26.6828V20.5521H30.0981V9.61738H19.1675V13.0327H17.1175V9.61738C17.1175 8.48428 18.0344 7.56738 19.1675 7.56738H30.0981ZM14.3828 19.1827H21.2175V21.2327H14.3828V19.1827Z" fill="white"/>
</svg>
