<svg width="37" height="37" viewBox="0 0 37 37" fill="none" xmlns="http://www.w3.org/2000/svg">
<path d="M12.1852 1.67578C10.8484 4.21094 9.88047 6.97656 9.37344 9.78828H2.78203C4.81016 6.10078 8.175 3.19688 12.1852 1.67578ZM2.09062 11.1711H9.14297C8.77422 13.3836 8.58984 15.5961 8.58984 17.8086H0.523438C0.615625 15.5039 1.16875 13.2453 2.09062 11.1711ZM0.523438 19.1453H8.58984C8.63594 21.3578 8.82031 23.5703 9.14297 25.7828H2.13672C1.16875 23.7086 0.661719 21.45 0.523438 19.1453ZM2.78203 27.1195H9.37344C9.88047 29.9773 10.8484 32.6969 12.1852 35.2781C8.175 33.757 4.85625 30.8531 2.78203 27.1195ZM17.9008 36.4766C16.518 36.4305 15.1813 36.2461 13.8445 35.8773C12.3234 33.2039 11.2633 30.2539 10.7102 27.2117H17.9008V36.4766ZM17.9008 25.8289H10.4797C10.1109 23.6164 9.92656 21.4039 9.92656 19.1914H17.9008V25.8289ZM17.9008 17.8547H9.92656C9.92656 15.6422 10.1109 13.4297 10.4797 11.2172H17.9008V17.8547ZM17.9008 9.88047H10.7102C11.2172 6.83828 12.2773 3.88828 13.7984 1.21484C15.1352 0.846094 16.518 0.615625 17.9008 0.523438V9.88047ZM34.1719 9.88047H27.7648C27.2578 7.06875 26.3359 4.34922 24.9992 1.81406C28.9172 3.33516 32.1437 6.14688 34.1719 9.83438V9.88047ZM19.2375 9.88047V0.523438C20.6203 0.569531 22.0031 0.8 23.3398 1.16875C24.8609 3.84219 25.9211 6.74609 26.4281 9.78828L19.2375 9.88047ZM19.2375 11.1711H26.6586C26.9812 13.3836 27.1656 15.5961 27.2117 17.8086H19.2375V11.1711ZM19.2375 19.1453H27.2117C27.2117 21.3578 27.0273 23.5703 26.6586 25.7828H19.2375V19.1453ZM19.2375 36.3844V27.1195H26.4281C25.875 30.1617 24.8609 33.0656 23.2938 35.7852C21.957 36.1078 20.6203 36.3383 19.2375 36.3844ZM24.907 35.1859C26.2438 32.6508 27.2117 29.9312 27.7188 27.0734H34.1258C32.0977 30.7609 28.825 33.6187 24.907 35.1859ZM34.7711 25.7367H27.9492C28.318 23.5242 28.5023 21.3117 28.5023 19.0992H36.3844C36.2922 21.4039 35.7391 23.6625 34.7711 25.7367ZM28.5023 17.7625C28.4562 15.55 28.2719 13.3375 27.9492 11.125H34.8172C35.7852 13.2453 36.3383 15.5039 36.4766 17.8086L28.5023 17.7625Z" fill="#336BFE"/>
</svg>
