<svg t="1711005153100" class="icon" viewBox="0 0 1024 1024" version="1.1" xmlns="http://www.w3.org/2000/svg" p-id="5372" width="200" height="200"><path d="M982.688 551.812H41.344c-22.264 0-40.313-18.048-40.313-40.312s18.049-40.312 40.313-40.312h941.344c22.263 0 40.312 18.048 40.312 40.312s-18.049 40.312-40.312 40.312zM713.719 148.625H41.344c-22.264 0-40.313-18.049-40.313-40.312C1.031 86.049 19.08 68 41.344 68h672.375c22.264 0 40.312 18.049 40.312 40.313 0 22.263-18.048 40.312-40.312 40.312zM41.344 874.406h672.375c22.264 0 40.312 18.049 40.312 40.313 0 22.264-18.048 40.312-40.312 40.312H41.344c-22.264 0-40.313-18.048-40.313-40.312s18.049-40.313 40.313-40.313z" fill="#ffffff" p-id="5373"></path></svg>