<svg width="60" height="60" viewBox="0 0 60 60" fill="none" xmlns="http://www.w3.org/2000/svg">
<circle cx="30" cy="30" r="30" fill="white"/>
<g clip-path="url(#clip0_37_416)">
<path d="M23.8291 18.3116C23.6493 18.4913 23.5535 18.7429 23.5535 18.9826C23.5535 19.2222 23.6493 19.4619 23.8291 19.6536L34.2055 30.018L23.8291 40.3825C23.4576 40.7539 23.4576 41.353 23.8291 41.7245C24.0088 41.9042 24.2604 42.0001 24.5001 42.0001C24.7397 42.0001 24.9793 41.9042 25.1711 41.7245L36.2185 30.689C36.5899 30.3176 36.5899 29.7185 36.2185 29.347L25.1711 18.3116C24.7996 17.9521 24.2005 17.9521 23.8291 18.3116Z" fill="black"/>
</g>
<defs>
<clipPath id="clip0_37_416">
<rect width="24" height="24" fill="white" transform="matrix(-1 0 0 1 42 18)"/>
</clipPath>
</defs>
</svg>
