<svg width="60" height="61" viewBox="0 0 60 61" fill="none" xmlns="http://www.w3.org/2000/svg">
<g clip-path="url(#clip0_37_202)">
<path d="M48.4635 6.79621C43.9567 3.51496 38.6477 1.51315 33.0968 1.00151C27.592 0.498687 22.054 1.50976 17.0817 3.92698C15.8506 4.53349 14.6589 5.21725 13.5139 5.9742C12.3804 6.74877 11.295 7.59246 10.2645 8.49985C9.23878 9.41469 8.27468 10.3966 7.37901 11.4395C7.14526 11.6923 6.94472 11.9722 6.72521 12.2378C6.50569 12.5035 6.29227 12.7718 6.09444 13.0537L5.484 13.8866L4.91421 14.7479C1.90605 19.44 0.214292 24.8552 0.0164579 30.4263C-0.0777166 27.6174 0.232585 24.8098 0.939232 22.0904C1.10048 21.4039 1.33558 20.7398 1.54358 20.0648C1.79222 19.4061 2.01242 18.7339 2.3051 18.0908C2.85524 16.7883 3.50159 15.5279 4.23873 14.3216C5.71368 11.897 7.52467 9.69389 9.61819 7.77814C10.6724 6.82805 11.7876 5.94777 12.9563 5.14339C14.1359 4.35255 15.3642 3.63898 16.6352 3.00604C19.1928 1.76524 21.9137 0.894442 24.7159 0.418046C25.4124 0.283191 26.1204 0.225589 26.823 0.134783L27.8826 0.0595621L28.4131 0.0243237L28.9443 0.0141587C30.3596 -0.0312446 31.7763 0.0324556 33.1815 0.206615C35.9898 0.532571 38.7357 1.2658 41.3333 2.38259C42.622 2.94437 43.8679 3.59764 45.063 4.33765C46.2568 5.0702 47.3937 5.8922 48.4635 6.79621Z" fill="white"/>
<path d="M10.6904 53.3704C15.1478 56.8691 20.4778 59.079 26.1025 59.7614C27.4928 59.9173 28.8912 59.9844 30.2902 59.9613C31.6866 59.9315 33.0796 59.8102 34.4603 59.5974C35.8377 59.3718 37.1989 59.0573 38.5363 58.6568C39.8703 58.2495 41.1732 57.7467 42.4354 57.1531C47.5255 54.7738 51.8555 51.0277 54.9423 46.3322C58.0446 41.5906 59.7885 36.09 59.985 30.4268C60.0785 33.2811 59.7547 36.134 59.0236 38.8942C58.6564 40.28 58.1842 41.6353 57.611 42.9493C57.342 43.6161 57.004 44.249 56.6903 44.8955C56.3366 45.5203 56.006 46.1594 55.6137 46.7618C55.2458 47.3805 54.8271 47.9653 54.4192 48.5576C53.9816 49.1275 53.5581 49.7117 53.0812 50.2497C52.155 51.3537 51.1489 52.3878 50.0703 53.3433C48.9937 54.3035 47.8467 55.1811 46.638 55.9679C45.434 56.7628 44.1732 57.4689 42.8656 58.0788C41.5566 58.686 40.2057 59.1983 38.8229 59.6123C37.4401 60.0223 36.0308 60.3361 34.6047 60.5516C31.7496 60.9548 28.8526 60.9541 25.9982 60.5495C24.5774 60.3381 23.173 60.0284 21.7956 59.6225C20.4236 59.2084 19.0835 58.6954 17.7854 58.0883C16.492 57.4811 15.2467 56.777 14.059 55.9828C12.8713 55.198 11.7453 54.3245 10.6904 53.3704Z" fill="white"/>
<path d="M42.3786 11.1066C38.8461 9.07632 34.8575 7.97174 30.7836 7.89516H30.0296L29.2762 7.92836C28.7741 7.93785 28.2762 8.00087 27.7768 8.04018C26.7802 8.15199 25.7924 8.33022 24.8195 8.5735C22.8716 9.04583 20.9956 9.77499 19.2395 10.742C18.3621 11.2238 17.5159 11.7605 16.7056 12.3481C15.898 12.9404 15.1297 13.5841 14.4047 14.2754C12.9454 15.6564 11.6703 17.2205 10.612 18.9289C8.47987 22.4012 7.25831 26.356 7.06048 30.4261C6.85993 26.2659 7.85385 22.1342 9.92501 18.5209C10.4379 17.6128 11.0165 16.7434 11.6574 15.9207C11.965 15.4999 12.3166 15.1129 12.6507 14.7111C13.0091 14.3323 13.3492 13.9345 13.7313 13.5774C15.2286 12.1136 16.9156 10.8572 18.7476 9.84344C20.5877 8.84389 22.5559 8.09981 24.5966 7.63223C25.6156 7.40318 26.6481 7.24189 27.6888 7.14905C28.7274 7.06299 29.7708 7.04605 30.8121 7.09891C34.9714 7.30288 38.985 8.69344 42.3786 11.1066Z" fill="white"/>
<path d="M17.1387 49.4279C20.3657 51.3775 24.0012 52.5519 27.7587 52.8582C28.6862 52.9368 29.6171 52.9497 30.5467 52.8968L31.9376 52.8168C32.399 52.7674 32.8563 52.6847 33.315 52.6217L34.0034 52.5214L34.6816 52.3676C35.1321 52.2591 35.586 52.1649 36.0332 52.047C36.9221 51.7848 37.7954 51.471 38.6477 51.1085L39.2886 50.8394L39.6091 50.7052L39.9167 50.544L41.1471 49.9009C41.5536 49.6779 41.9323 49.4096 42.3266 49.1663L42.9134 48.7929L43.4689 48.3741C44.9716 47.2776 46.3341 46.0016 47.5279 44.5751L48.4087 43.4888L49.198 42.3348C49.4676 41.9532 49.7129 41.5548 49.9331 41.1427L50.2793 40.5322C50.4012 40.3316 50.5096 40.1235 50.6045 39.9094L51.2034 38.6354C51.406 38.2125 51.5361 37.7578 51.7129 37.3201L51.9622 36.6573C52.0442 36.4357 52.0937 36.2046 52.1621 35.979L52.5564 34.6128C52.4236 35.5554 52.2326 36.4879 51.9832 37.4068C51.8484 37.8635 51.7441 38.3332 51.5733 38.7797L51.0605 40.1215C50.9778 40.3472 50.8802 40.5661 50.7678 40.7782L50.4487 41.4226C50.2474 41.8597 50.0198 42.2833 49.7664 42.6919L49.0096 43.9225L48.1485 45.082C46.9676 46.6142 45.5895 47.9831 44.0509 49.1548L43.4791 49.602L42.8707 49.9971C42.4614 50.2546 42.0665 50.5379 41.6444 50.7737L40.3625 51.4575L40.042 51.6282L39.7087 51.7719L39.0407 52.0572C38.1464 52.4285 37.231 52.7484 36.3001 53.0147C35.832 53.1347 35.3564 53.2302 34.8848 53.3386L34.1761 53.4925L33.4559 53.5826C32.9756 53.6375 32.4972 53.71 32.0155 53.7493L30.567 53.7967C29.6022 53.8286 28.6368 53.7812 27.6794 53.6544C23.8508 53.2112 20.2112 51.7529 17.1387 49.4279Z" fill="white"/>
<path d="M24.785 10.3711C25.0573 10.7174 26.2931 12.3146 26.7016 12.789C27.2911 13.4728 27.5919 14.3585 27.5418 15.2598C27.5485 16.9376 27.5106 18.3045 27.5255 19.8272V20.2541C26.8595 20.244 25.4394 20.248 24.7734 20.2582V19.9214C24.7816 16.7933 24.785 13.6659 24.785 10.5392C24.7707 10.4843 24.7707 10.426 24.785 10.3711Z" fill="#336BFE"/>
<path d="M35.3144 20.1978C34.3964 20.1978 33.4303 20.2045 32.6356 20.1842L32.6274 19.8901C32.6132 19.0356 32.6274 18.1804 32.6274 17.1978L35.3144 20.1978Z" fill="#336BFE"/>
<path d="M27.7075 34.8293C27.7075 34.8293 27.7075 33.2084 27.7075 33.003C27.7075 30.7173 27.7075 28.4315 27.7075 26.1458C27.7075 25.6206 27.7075 25.6206 27.1661 25.6199C26.4859 25.6199 25.8043 25.6477 25.1282 25.609C24.7007 25.5847 24.6051 25.7297 24.6106 26.1342C24.6289 27.5824 24.62 29.0306 24.6255 30.4801H24.6275V31.006C24.6275 31.1239 24.6275 31.2411 24.6275 31.3597C24.6275 31.3766 24.6275 31.3915 24.6275 31.4071C24.6275 31.4071 24.7508 42.2829 24.8138 44.6175C24.8477 44.318 24.8822 44.0632 24.9053 43.8063C25.0299 42.3704 25.1431 40.933 25.286 39.4991C25.2901 39.4666 25.3016 39.4347 25.3186 39.4069C25.4053 39.2707 25.5855 39.2307 25.7217 39.3175C25.7671 39.3466 25.8037 39.3873 25.8274 39.4354C25.8416 39.4652 25.8504 39.4977 25.8524 39.5309C25.9229 41.175 25.9791 42.8203 26.0198 44.4657C26.0381 45.1352 26.0232 45.8047 26.0232 46.475H26.1282C26.2766 44.6744 26.4175 42.8745 26.5821 41.076V41.072C26.5957 40.9364 26.7163 40.8382 26.8511 40.851C26.9724 40.8632 27.0666 40.9615 27.0727 41.0828V41.0923C27.1648 43.1822 27.2359 45.2735 27.3132 47.364C27.4019 45.7458 27.4853 44.1302 27.5483 42.5133C27.5984 41.1336 27.7061 35.0082 27.7075 34.8293Z" fill="#336BFE"/>
<path d="M36.4707 21.3383C35.6882 21.4609 34.8982 21.5253 34.1062 21.5307C31.4829 21.5545 28.8589 21.5057 26.2348 21.5118C25.0932 21.4792 23.9509 21.524 22.8154 21.6459C21.1027 21.8845 19.7517 22.7255 19.0938 24.4311C18.7761 25.2748 18.6697 26.1836 18.7835 27.0781C18.8703 27.8425 19.0376 28.5981 19.1684 29.3577C19.2503 29.0731 19.3005 28.7804 19.3167 28.4849C19.5627 26.7542 20.6284 25.6963 22.1853 25.0783C23.5756 24.5545 25.0492 24.2875 26.5343 24.2909C28.3155 24.2597 30.098 24.2807 31.8792 24.28C32.4476 24.28 32.449 24.28 32.449 24.8357C32.449 28.0465 32.6218 43.0818 32.7065 45.8554C32.7098 45.9706 32.7234 46.0831 32.7329 46.1963C32.7925 46.0635 32.8216 45.9191 32.8189 45.7734C32.8684 44.7285 32.9727 43.6842 32.9727 42.6386C32.9727 42.3445 32.9619 42.0117 33.3101 42.0117C33.6028 42.0117 33.6238 42.4278 33.636 42.686C33.7437 45.0084 33.8372 47.3314 33.9355 49.6537H34.0649C34.0649 48.5566 34.0513 47.4595 34.0689 46.3623C34.0838 45.4515 34.1204 44.5415 34.1794 43.6313C34.1977 43.3515 34.2112 42.9259 34.5947 42.9462C34.947 42.9652 34.9639 43.3738 34.9809 43.6666C35.0195 44.3043 35.0337 44.9433 35.0479 45.583C35.0927 47.698 35.1353 49.8137 35.1753 51.9286C35.2397 49.9709 35.5059 32.5062 35.5059 32.5062C35.5059 32.4716 35.5059 32.4364 35.5059 32.4018C35.5059 32.3957 35.5059 32.3923 35.5059 32.3869V31.4802C35.4998 31.4294 35.4971 31.3779 35.4978 31.3263C35.5141 29.2181 35.5019 27.1086 35.5053 25.0004C35.5053 24.0801 35.4138 24.2475 36.2682 24.1072C39.6198 23.5536 41.2167 20.8673 41.3753 18.2373C40.4443 20.273 38.567 21.0056 36.4707 21.3383Z" fill="#336BFE"/>
<path d="M32.5472 31.3123V31.9086C37.6056 32.1126 41.3868 32.9244 41.3868 33.8962C41.3868 35.0218 36.3156 35.9346 30.0608 35.9346C23.806 35.9346 18.7348 35.0225 18.7348 33.8962C18.7348 32.9163 22.5817 32.0977 27.7071 31.9025V31.3062C21.0397 31.5447 15.959 32.7774 15.959 34.2635C15.959 35.9204 22.2727 37.2635 30.0608 37.2635C37.8488 37.2635 44.1625 35.9204 44.1625 34.2635C44.1619 32.7882 39.1483 31.5616 32.5472 31.3123Z" fill="#336BFE"/>
<path d="M53.2083 38.7344L53.4651 39.2426C53.0904 39.3876 52.7869 39.6736 52.6189 40.0389C52.4319 40.4834 52.5369 40.8216 52.8458 40.9517C53.1805 41.0926 53.3905 40.8873 53.6832 40.6108L54.1175 40.1941C54.4285 39.82 54.9407 39.6824 55.3973 39.8505C55.9766 40.0944 56.1961 40.7877 55.9021 41.487C55.7246 41.9045 55.3892 42.2345 54.9685 42.4053L54.7273 41.9438C55.0288 41.8157 55.2686 41.5751 55.3973 41.2736C55.5552 40.8988 55.478 40.5783 55.1839 40.4543C54.8696 40.3221 54.6257 40.5668 54.379 40.8155L53.9515 41.2295C53.6392 41.6205 53.1046 41.7554 52.6439 41.5602C52.0552 41.3115 51.7814 40.621 52.1202 39.8166C52.3241 39.3239 52.7157 38.935 53.2083 38.7344Z" fill="white"/>
<path d="M54.0537 44.9985L53.3843 46.0048C52.8924 46.7455 52.2894 47.1053 51.5387 46.6072C50.8118 46.1241 50.8287 45.3739 51.3077 44.6522L51.6404 44.1521L50.3809 43.3158L50.7271 42.792L54.0537 44.9985ZM51.763 44.8833C51.4093 45.4166 51.4446 45.8042 51.8816 46.0949C52.3192 46.3856 52.6471 46.2061 52.9967 45.6782L53.2847 45.2445L52.0618 44.4319L51.763 44.8833Z" fill="white"/>
<path d="M47.7373 48.4268L48.696 47.4238L48.1106 46.3897L48.5523 45.9282L50.5192 49.6425L50.0171 50.167L46.2217 48.3637L46.6831 47.8819L47.7373 48.4268ZM48.1987 48.6572L48.6946 48.9147C49.1011 49.1173 49.5049 49.3375 49.9162 49.5585L49.9311 49.5429C49.6811 49.1458 49.45 48.7527 49.2265 48.359L48.9514 47.8697L48.1987 48.6572Z" fill="white"/>
<path d="M46.3221 50.8597C47.0788 51.9175 46.8905 53.0133 46.0714 53.6001C45.7197 53.8502 45.2787 53.941 44.8566 53.8495L44.9006 53.325C45.192 53.3914 45.4982 53.3325 45.7435 53.161C46.3024 52.7605 46.3559 52.0151 45.8105 51.2534C45.2584 50.4842 44.5598 50.2694 43.9873 50.6801C43.7109 50.8827 43.5381 51.1965 43.5151 51.5387L43.0117 51.412C43.0442 50.9335 43.2922 50.4958 43.6865 50.2227C44.5009 49.6378 45.5619 49.7978 46.3221 50.8597Z" fill="white"/>
<path d="M42.795 55.5067L40.6588 56.5036L40.4366 56.0272L42.003 55.2967L41.5341 54.2897L40.2083 54.9084L39.984 54.4272L41.3099 53.8085L40.7645 52.6396L39.1432 53.3958L38.9189 52.9147L41.1107 51.8921L42.795 55.5067Z" fill="white"/>
<path d="M38.0533 57.4291L36.8832 57.7293C36.0228 57.9495 35.3338 57.8133 35.1102 56.9425C34.8934 56.0961 35.4076 55.552 36.2477 55.3365L36.8297 55.1867L36.4544 53.7223L37.0635 53.5664L38.0533 57.4291ZM36.43 55.8095C35.8114 55.9687 35.5777 56.2798 35.7084 56.788C35.8385 57.2969 36.2017 57.383 36.8162 57.2258L37.3202 57.097L36.9551 55.6739L36.43 55.8095Z" fill="white"/>
<path d="M32.8762 58.459L32.2502 58.5186L31.8701 54.5462L32.4955 54.4858L32.8762 58.459Z" fill="white"/>
<path d="M7.47885 19.5957L7.28169 19.0617C7.67059 18.9594 8.00393 18.71 8.21192 18.3665C8.44838 17.9463 8.38198 17.598 8.08929 17.4333C7.77289 17.2558 7.54118 17.436 7.21869 17.6773L6.74036 18.0425C6.38941 18.3793 5.86434 18.4579 5.43005 18.2397C4.88262 17.9314 4.74237 17.2178 5.11365 16.5564C5.33723 16.1613 5.70783 15.8713 6.14483 15.75L6.3325 16.2359C6.01813 16.3294 5.75255 16.5408 5.59062 16.8254C5.39143 17.1799 5.43208 17.5072 5.70986 17.6637C6.00729 17.8304 6.27762 17.6156 6.55066 17.3954L7.02221 17.0321C7.37655 16.6791 7.9233 16.6052 8.35827 16.8519C8.91518 17.1656 9.10895 17.8833 8.68144 18.6436C8.42398 19.1098 7.99038 19.4521 7.47885 19.5957Z" fill="white"/>
<path d="M7.34766 13.2759L8.12612 12.3516C8.69862 11.6719 9.33887 11.3818 10.0279 11.9612C10.6953 12.5237 10.5936 13.2664 10.036 13.9299L9.64917 14.3893L10.8057 15.3624L10.4026 15.8436L7.34766 13.2759ZM9.61055 13.6493C10.0225 13.1594 10.0313 12.7704 9.62953 12.4322C9.22776 12.0941 8.88155 12.235 8.47436 12.7202L8.13967 13.118L9.26299 14.064L9.61055 13.6493Z" fill="white"/>
<path d="M14.0102 10.5838L12.9438 11.4715L13.4086 12.5646L12.9174 12.9732L11.3828 9.06039L11.9411 8.59619L15.5082 10.8169L14.9953 11.2431L14.0102 10.5838ZM13.578 10.3019L13.1139 9.99015C12.7324 9.7428 12.3564 9.47851 11.9729 9.21218L11.956 9.22642C12.1599 9.64928 12.3449 10.066 12.5217 10.4828L12.7399 10.9999L13.578 10.3019Z" fill="white"/>
<path d="M15.6914 8.32675C15.0586 7.19031 15.3695 6.12231 16.2503 5.63236C16.6284 5.42364 17.0762 5.38366 17.4854 5.5219L17.3824 6.03828C17.1006 5.93934 16.7896 5.96374 16.5267 6.10605C15.9258 6.44081 15.7889 7.1754 16.2449 7.99401C16.7063 8.82076 17.3763 9.11352 17.9915 8.76994C18.2889 8.59985 18.4963 8.3071 18.5579 7.9703L19.0444 8.15326C18.9583 8.62492 18.6616 9.0322 18.2395 9.25921C17.3628 9.74645 16.3269 9.46725 15.6914 8.32675Z" fill="white"/>
<path d="M19.7207 4.1082L21.9558 3.35938L22.1225 3.85746L20.4836 4.40637L20.8359 5.46013L22.2234 4.99525L22.3915 5.49876L21.0039 5.96364L21.4138 7.18682L23.1103 6.61894L23.2783 7.12244L20.9849 7.8909L19.7207 4.1082Z" fill="white"/>
<path d="M24.6494 2.73484L25.8459 2.56881C26.726 2.44751 27.3954 2.6603 27.5187 3.55142C27.6386 4.4168 27.0661 4.8993 26.207 5.01857L25.6115 5.10124L25.8188 6.59887L25.1962 6.68494L24.6494 2.73484ZM26.079 4.52726C26.7118 4.43916 26.9787 4.15658 26.9069 3.63613C26.8351 3.11569 26.4841 2.98896 25.8561 3.07638L25.3405 3.14753L25.5424 4.60248L26.079 4.52726Z" fill="white"/>
<path d="M29.9103 2.29688L30.539 2.30839L30.4679 6.29847L29.8398 6.28763L29.9103 2.29688Z" fill="white"/>
</g>
<defs>
<clipPath id="clip0_37_202">
<rect width="60" height="60.8541" fill="white"/>
</clipPath>
</defs>
</svg>
