<svg width="67" height="67" viewBox="0 0 67 67" fill="none" xmlns="http://www.w3.org/2000/svg">
<path d="M57.8144 10.2028C57.8144 10.2028 63.2377 8.0881 62.7857 13.2238C62.6351 15.3385 61.2793 22.7399 60.2248 30.7456L56.6093 54.4603C56.6093 54.4603 56.3081 57.9344 53.5964 58.5387C50.8847 59.1428 46.8174 56.424 46.064 55.8197C45.4614 55.3667 34.7657 48.5694 30.9995 45.2463C29.9449 44.34 28.7398 42.5274 31.1501 40.4127L46.968 25.3078C48.7757 23.4952 50.5835 19.2658 43.0511 24.4015L21.9608 38.7512C21.9608 38.7512 19.5505 40.2616 15.0312 38.9022L5.23915 35.8812C5.23915 35.8812 1.62365 33.6155 7.80013 31.3497C22.8647 24.2503 41.3941 16.9999 57.8144 10.2028Z" fill="url(#paint0_linear_161_780)"/>
<defs>
<linearGradient id="paint0_linear_161_780" x1="33.5" y1="9.77148" x2="33.5" y2="58.6257" gradientUnits="userSpaceOnUse">
<stop stop-color="#ACB8BF"/>
<stop offset="1" stop-color="#727A9D"/>
</linearGradient>
</defs>
</svg>
